<?xml version="1.0" encoding="UTF-8"?>
<svg id="Capa_1" data-name="Capa 1" xmlns="http://www.w3.org/2000/svg" viewBox="0 0 975.26 975.21">
  <defs>
    <style>
      .cls-1 {
        fill: red;
        stroke-width: 0px;
      }

      .cls-2 {
        fill: none;
        stroke: #c00000;
        stroke-miterlimit: 10;
        stroke-width: 10px;
      }
    </style>
  </defs>
  <path class="cls-1" d="M296.05,402.18c-5.57-6.79-12.72-12.1-21.45-15.91-8.73-3.81-20.19-5.71-34.36-5.71h-23.38v154.69h24.08c12.66,0,23.32-1.64,31.99-4.92,8.67-3.28,15.91-8.23,21.71-14.85,5.8-6.62,10.13-14.85,13.01-24.7,2.87-9.84,4.31-21.33,4.31-34.45,0-10.78-1.26-20.8-3.78-30.06-2.52-9.26-6.56-17.28-12.13-24.08ZM718.01,387.76l-32.17,96.68h64.51l-32.17-96.68h-.18ZM541.44,400.15c-4.51-6.97-10.52-12.36-18.02-16.17-7.5-3.81-16.88-5.71-28.12-5.71s-20.86,2.14-28.48,6.42c-7.62,4.28-13.77,9.99-18.46,17.14-4.69,7.15-8,15.5-9.93,25.05-1.93,9.55-2.9,19.66-2.9,30.32,0,12.42.94,23.58,2.81,33.49,1.87,9.9,5.04,18.37,9.49,25.4,4.45,7.03,10.43,12.39,17.93,16.08,7.5,3.69,16.93,5.54,28.3,5.54s20.86-2.11,28.48-6.33c7.62-4.22,13.77-9.96,18.46-17.23,4.69-7.26,8-15.73,9.93-25.4s2.9-19.95,2.9-30.85c0-11.95-.94-22.82-2.81-32.61-1.88-9.78-5.07-18.16-9.58-25.14ZM479.83,7.43L7.47,479.78l488.36,488.36,472.36-472.36L479.83,7.43ZM351.6,508.26c-5.45,14.83-13.27,26.92-23.47,36.3-10.2,9.38-22.59,16.26-37.18,20.65s-31.96,6.59-52.12,6.59h-54.32c-3.87,0-7.12-1.14-9.76-3.43s-3.96-6-3.96-11.16v-198.28c0-5.16,1.32-8.88,3.96-11.16s5.89-3.43,9.76-3.43h58.36c20.27,0,37.47,2.37,51.59,7.12,14.12,4.75,26.02,11.78,35.68,21.09s17.02,20.83,22.06,34.54c5.04,13.71,7.56,29.59,7.56,47.64,0,20.86-2.72,38.7-8.17,53.53ZM595.32,506.06c-4.69,14.88-11.66,27.51-20.92,37.88-9.26,10.37-20.71,18.28-34.37,23.73-13.65,5.45-29.44,8.17-47.37,8.17s-33.13-2.32-46.32-6.94-24.17-11.69-32.96-21.18-15.38-21.56-19.78-36.21c-4.39-14.65-6.59-31.99-6.59-52.03,0-18.4,2.34-34.95,7.03-49.66,4.69-14.71,11.66-27.22,20.92-37.53,9.26-10.31,20.71-18.22,34.37-23.73,13.65-5.51,29.5-8.26,47.55-8.26s32.43,2.29,45.62,6.86,24.2,11.6,33.05,21.09c8.85,9.49,15.53,21.48,20.04,35.95,4.51,14.47,6.77,31.55,6.77,51.24s-2.35,35.74-7.03,50.62ZM816.98,572.42c-3.28.29-7.79.44-13.54.44s-10.63-.09-13.97-.26-5.89-.53-7.65-1.05-2.99-1.26-3.69-2.2c-.7-.94-1.29-2.17-1.76-3.69l-15.29-45.7h-85.43l-14.41,44.47c-.47,1.64-1.08,3.02-1.85,4.13-.76,1.12-1.99,1.99-3.69,2.64-1.7.64-4.1,1.08-7.21,1.32-3.11.23-7.18.35-12.22.35-5.39,0-9.61-.18-12.66-.53-3.05-.35-5.16-1.2-6.33-2.55-1.17-1.35-1.58-3.25-1.23-5.71s1.23-5.74,2.64-9.84l70.14-201.8c.7-1.99,1.52-3.6,2.46-4.83.94-1.23,2.43-2.17,4.48-2.81,2.05-.64,4.89-1.05,8.53-1.23,3.63-.18,8.44-.26,14.41-.26,6.91,0,12.42.09,16.52.26,4.1.18,7.29.59,9.58,1.23,2.29.65,3.92,1.61,4.92,2.9.99,1.29,1.85,3.05,2.55,5.27l70.31,201.62c1.41,4.22,2.29,7.56,2.64,10.02s-.12,4.31-1.41,5.54c-1.29,1.23-3.58,1.99-6.86,2.29Z"/>
  <path class="cls-2" d="M296.05,402.18c-5.57-6.79-12.72-12.1-21.45-15.91-8.73-3.81-20.19-5.71-34.36-5.71h-23.38v154.69h24.08c12.66,0,23.32-1.64,31.99-4.92,8.67-3.28,15.91-8.23,21.71-14.85,5.8-6.62,10.13-14.85,13.01-24.7,2.87-9.84,4.31-21.33,4.31-34.45,0-10.78-1.26-20.8-3.78-30.06-2.52-9.26-6.56-17.28-12.13-24.08ZM718.01,387.76l-32.17,96.68h64.51l-32.17-96.68h-.18ZM541.44,400.15c-4.51-6.97-10.52-12.36-18.02-16.17-7.5-3.81-16.88-5.71-28.12-5.71s-20.86,2.14-28.48,6.42c-7.62,4.28-13.77,9.99-18.46,17.14-4.69,7.15-8,15.5-9.93,25.05-1.93,9.55-2.9,19.66-2.9,30.32,0,12.42.94,23.58,2.81,33.49,1.87,9.9,5.04,18.37,9.49,25.4,4.45,7.03,10.43,12.39,17.93,16.08,7.5,3.69,16.93,5.54,28.3,5.54s20.86-2.11,28.48-6.33c7.62-4.22,13.77-9.96,18.46-17.23,4.69-7.26,8-15.73,9.93-25.4s2.9-19.95,2.9-30.85c0-11.95-.94-22.82-2.81-32.61-1.88-9.78-5.07-18.16-9.58-25.14ZM479.83,7.43L7.47,479.78l488.36,488.36,472.36-472.36L479.83,7.43ZM351.6,508.26c-5.45,14.83-13.27,26.92-23.47,36.3-10.2,9.38-22.59,16.26-37.18,20.65s-31.96,6.59-52.12,6.59h-54.32c-3.87,0-7.12-1.14-9.76-3.43s-3.96-6-3.96-11.16v-198.28c0-5.16,1.32-8.88,3.96-11.16s5.89-3.43,9.76-3.43h58.36c20.27,0,37.47,2.37,51.59,7.12,14.12,4.75,26.02,11.78,35.68,21.09s17.02,20.83,22.06,34.54c5.04,13.71,7.56,29.59,7.56,47.64,0,20.86-2.72,38.7-8.17,53.53ZM595.32,506.06c-4.69,14.88-11.66,27.51-20.92,37.88-9.26,10.37-20.71,18.28-34.37,23.73-13.65,5.45-29.44,8.17-47.37,8.17s-33.13-2.32-46.32-6.94-24.17-11.69-32.96-21.18-15.38-21.56-19.78-36.21c-4.39-14.65-6.59-31.99-6.59-52.03,0-18.4,2.34-34.95,7.03-49.66,4.69-14.71,11.66-27.22,20.92-37.53,9.26-10.31,20.71-18.22,34.37-23.73,13.65-5.51,29.5-8.26,47.55-8.26s32.43,2.29,45.62,6.86,24.2,11.6,33.05,21.09c8.85,9.49,15.53,21.48,20.04,35.95,4.51,14.47,6.77,31.55,6.77,51.24s-2.35,35.74-7.03,50.62ZM816.98,572.42c-3.28.29-7.79.44-13.54.44s-10.63-.09-13.97-.26-5.89-.53-7.65-1.05-2.99-1.26-3.69-2.2c-.7-.94-1.29-2.17-1.76-3.69l-15.29-45.7h-85.43l-14.41,44.47c-.47,1.64-1.08,3.02-1.85,4.13-.76,1.12-1.99,1.99-3.69,2.64-1.7.64-4.1,1.08-7.21,1.32-3.11.23-7.18.35-12.22.35-5.39,0-9.61-.18-12.66-.53-3.05-.35-5.16-1.2-6.33-2.55-1.17-1.35-1.58-3.25-1.23-5.71s1.23-5.74,2.64-9.84l70.14-201.8c.7-1.99,1.52-3.6,2.46-4.83.94-1.23,2.43-2.17,4.48-2.81,2.05-.64,4.89-1.05,8.53-1.23,3.63-.18,8.44-.26,14.41-.26,6.91,0,12.42.09,16.52.26,4.1.18,7.29.59,9.58,1.23,2.29.65,3.92,1.61,4.92,2.9.99,1.29,1.85,3.05,2.55,5.27l70.31,201.62c1.41,4.22,2.29,7.56,2.64,10.02s-.12,4.31-1.41,5.54c-1.29,1.23-3.58,1.99-6.86,2.29Z"/>
</svg>