<?xml version="1.0" encoding="UTF-8"?>
<svg id="Capa_1" data-name="Capa 1" xmlns="http://www.w3.org/2000/svg" viewBox="0 0 572.91 582.76">
  <defs>
    <style>
      .cls-1 {
        fill: #221e1f;
        stroke: #221e1f;
      }

      .cls-1, .cls-2, .cls-3 {
        stroke-miterlimit: 10;
      }

      .cls-2 {
        fill: #4b90cb;
        stroke: #4b90cb;
      }

      .cls-3 {
        fill: #b4d5ee;
        stroke: #b4d5ee;
      }
    </style>
  </defs>
  <path class="cls-3" d="M316.25,444.15c68.38-5.77,124.18-55.17,138.85-119.94h117.31c0,149.19-106.9,251.57-256.16,258.03v-138.09Z"/>
  <path class="cls-1" d="M293.68,582.24C130.94,577.45.5,452.47.5,290.27S134.29.5,301.25.5c62.61,0,112.18,23.76,160.43,56.02l-73.94,104.17c-24.44-15.72-53.61-24.85-84.93-24.85-86.19,0-156.07,69.14-156.07,154.44s64.99,149.49,146.93,154.18v137.79Z"/>
  <path class="cls-2" d="M316.25,324.2v99.46s104.87-3.75,121.05-99.46c0,.94-121.05,0-121.05,0Z"/>
</svg>