<?xml version="1.0" encoding="UTF-8"?>
<svg id="Capa_2" data-name="Capa 2" xmlns="http://www.w3.org/2000/svg" viewBox="0 0 992.58 859.58">
  <defs>
    <style>
      .cls-1 {
        fill: none;
        stroke: #0000c0;
        stroke-miterlimit: 10;
        stroke-width: 10px;
      }

      .cls-2 {
        fill: blue;
        stroke-width: 0px;
      }
    </style>
  </defs>
  <path class="cls-2" d="M646.94,358.83c-2.05-.51-4.38-.92-7-1.23s-6.23-.46-10.84-.46h-18.15v56.45h20.61c5.74,0,10.77-.69,15.07-2.08,4.31-1.38,7.89-3.33,10.77-5.84,2.87-2.51,5.02-5.51,6.46-9,1.43-3.48,2.15-7.38,2.15-11.69,0-6.56-1.49-12.1-4.46-16.61-2.98-4.51-7.85-7.69-14.61-9.54ZM397.54,376.83c-4.87-5.95-11.13-10.59-18.76-13.92-7.64-3.33-17.66-5-30.07-5h-20.46v135.35h21.07c11.07,0,20.4-1.43,27.99-4.31,7.59-2.87,13.92-7.2,19-13,5.08-5.79,8.87-13,11.38-21.61,2.51-8.61,3.77-18.66,3.77-30.15,0-9.43-1.1-18.2-3.31-26.3-2.21-8.1-5.74-15.12-10.61-21.07ZM980.03,429.73l-274.32-120.95L738.12,10.73l-241.91,177.09L254.3,10.73l32.41,298.04L12.39,429.73l274.32,120.95-32.41,298.04,241.91-177.09,241.91,177.09-32.41-298.04,274.32-120.95ZM446.14,469.65c-4.77,12.97-11.61,23.56-20.53,31.76-8.92,8.2-19.76,14.23-32.53,18.07-12.77,3.84-27.97,5.77-45.6,5.77h-47.53c-3.38,0-6.23-1-8.54-3-2.31-2-3.46-5.25-3.46-9.77v-173.5c0-4.51,1.15-7.77,3.46-9.77,2.31-2,5.15-3,8.54-3h51.06c17.74,0,32.79,2.08,45.14,6.23,12.35,4.15,22.76,10.3,31.22,18.46,8.46,8.15,14.89,18.23,19.3,30.22,4.41,12,6.61,25.89,6.61,41.68,0,18.25-2.38,33.86-7.15,46.83ZM527.13,519.71c0,1.03-.33,1.95-1,2.77-.67.82-1.77,1.49-3.31,2-1.54.51-3.59.92-6.15,1.23-2.56.31-5.84.46-9.84.46s-7.15-.15-9.77-.46c-2.61-.31-4.69-.72-6.23-1.23-1.54-.51-2.64-1.18-3.31-2-.67-.82-1-1.74-1-2.77v-187.95c0-1.02.33-1.95,1-2.77.67-.82,1.79-1.49,3.38-2,1.59-.51,3.67-.92,6.23-1.23,2.56-.31,5.79-.46,9.69-.46s7.28.15,9.84.46c2.56.31,4.61.72,6.15,1.23,1.54.51,2.64,1.18,3.31,2,.67.82,1,1.74,1,2.77v187.95ZM685.39,525.87c-2.56-.21-4.59-.59-6.08-1.15-1.49-.56-2.54-1.28-3.15-2.15-.62-.87-1.13-1.92-1.54-3.15l-17.84-44.45c-2.15-5.02-4.26-9.48-6.3-13.38-2.05-3.9-4.33-7.15-6.85-9.77-2.51-2.62-5.41-4.59-8.69-5.92-3.28-1.33-7.08-2-11.38-2h-12.61v75.83c0,1.03-.33,1.95-1,2.77-.67.82-1.77,1.49-3.31,2-1.54.51-3.59.92-6.15,1.23-2.56.31-5.84.46-9.84.46s-7.15-.15-9.77-.46c-2.62-.31-4.69-.72-6.23-1.23-1.54-.51-2.61-1.18-3.23-2-.62-.82-.92-1.74-.92-2.77v-180.72c0-4.51,1.15-7.77,3.46-9.77,2.31-2,5.15-3,8.54-3h51.53c5.23,0,9.54.1,12.92.31,3.38.21,6.46.46,9.23.77,8,1.13,15.2,3.08,21.61,5.84,6.41,2.77,11.84,6.38,16.3,10.84,4.46,4.46,7.87,9.74,10.23,15.84,2.36,6.1,3.54,13.1,3.54,20.99,0,6.67-.85,12.74-2.54,18.23-1.69,5.49-4.18,10.38-7.46,14.69-3.28,4.31-7.33,8.05-12.15,11.23-4.82,3.18-10.3,5.74-16.46,7.69,2.97,1.44,5.77,3.18,8.38,5.23,2.62,2.05,5.08,4.54,7.38,7.46,2.31,2.92,4.48,6.26,6.54,10,2.05,3.75,4.05,7.97,6,12.69l16.77,39.22c1.54,3.9,2.56,6.74,3.08,8.54.51,1.79.77,3.21.77,4.23,0,1.13-.21,2.08-.62,2.85-.41.77-1.38,1.41-2.92,1.92-1.54.51-3.79.87-6.77,1.08-2.97.2-7.02.31-12.15.31-4.31,0-7.74-.1-10.3-.31Z"/>
  <path class="cls-1" d="M646.94,358.83c-2.05-.51-4.38-.92-7-1.23s-6.23-.46-10.84-.46h-18.15v56.45h20.61c5.74,0,10.77-.69,15.07-2.08,4.31-1.38,7.89-3.33,10.77-5.84,2.87-2.51,5.02-5.51,6.46-9,1.43-3.48,2.15-7.38,2.15-11.69,0-6.56-1.49-12.1-4.46-16.61-2.98-4.51-7.85-7.69-14.61-9.54ZM397.54,376.83c-4.87-5.95-11.13-10.59-18.76-13.92-7.64-3.33-17.66-5-30.07-5h-20.46v135.35h21.07c11.07,0,20.4-1.43,27.99-4.31,7.59-2.87,13.92-7.2,19-13,5.08-5.79,8.87-13,11.38-21.61,2.51-8.61,3.77-18.66,3.77-30.15,0-9.43-1.1-18.2-3.31-26.3-2.21-8.1-5.74-15.12-10.61-21.07ZM980.03,429.73l-274.32-120.95L738.12,10.73l-241.91,177.09L254.3,10.73l32.41,298.04L12.39,429.73l274.32,120.95-32.41,298.04,241.91-177.09,241.91,177.09-32.41-298.04,274.32-120.95ZM446.14,469.65c-4.77,12.97-11.61,23.56-20.53,31.76-8.92,8.2-19.76,14.23-32.53,18.07-12.77,3.84-27.97,5.77-45.6,5.77h-47.53c-3.38,0-6.23-1-8.54-3-2.31-2-3.46-5.25-3.46-9.77v-173.5c0-4.51,1.15-7.77,3.46-9.77,2.31-2,5.15-3,8.54-3h51.06c17.74,0,32.79,2.08,45.14,6.23,12.35,4.15,22.76,10.3,31.22,18.46,8.46,8.15,14.89,18.23,19.3,30.22,4.41,12,6.61,25.89,6.61,41.68,0,18.25-2.38,33.86-7.15,46.83ZM527.13,519.71c0,1.03-.33,1.95-1,2.77-.67.82-1.77,1.49-3.31,2-1.54.51-3.59.92-6.15,1.23-2.56.31-5.84.46-9.84.46s-7.15-.15-9.77-.46c-2.61-.31-4.69-.72-6.23-1.23-1.54-.51-2.64-1.18-3.31-2-.67-.82-1-1.74-1-2.77v-187.95c0-1.02.33-1.95,1-2.77.67-.82,1.79-1.49,3.38-2,1.59-.51,3.67-.92,6.23-1.23,2.56-.31,5.79-.46,9.69-.46s7.28.15,9.84.46c2.56.31,4.61.72,6.15,1.23,1.54.51,2.64,1.18,3.31,2,.67.82,1,1.74,1,2.77v187.95ZM685.39,525.87c-2.56-.21-4.59-.59-6.08-1.15-1.49-.56-2.54-1.28-3.15-2.15-.62-.87-1.13-1.92-1.54-3.15l-17.84-44.45c-2.15-5.02-4.26-9.48-6.3-13.38-2.05-3.9-4.33-7.15-6.85-9.77-2.51-2.62-5.41-4.59-8.69-5.92-3.28-1.33-7.08-2-11.38-2h-12.61v75.83c0,1.03-.33,1.95-1,2.77-.67.82-1.77,1.49-3.31,2-1.54.51-3.59.92-6.15,1.23-2.56.31-5.84.46-9.84.46s-7.15-.15-9.77-.46c-2.62-.31-4.69-.72-6.23-1.23-1.54-.51-2.61-1.18-3.23-2-.62-.82-.92-1.74-.92-2.77v-180.72c0-4.51,1.15-7.77,3.46-9.77,2.31-2,5.15-3,8.54-3h51.53c5.23,0,9.54.1,12.92.31,3.38.21,6.46.46,9.23.77,8,1.13,15.2,3.08,21.61,5.84,6.41,2.77,11.84,6.38,16.3,10.84,4.46,4.46,7.87,9.74,10.23,15.84,2.36,6.1,3.54,13.1,3.54,20.99,0,6.67-.85,12.74-2.54,18.23-1.69,5.49-4.18,10.38-7.46,14.69-3.28,4.31-7.33,8.05-12.15,11.23-4.82,3.18-10.3,5.74-16.46,7.69,2.97,1.44,5.77,3.18,8.38,5.23,2.62,2.05,5.08,4.54,7.38,7.46,2.31,2.92,4.48,6.26,6.54,10,2.05,3.75,4.05,7.97,6,12.69l16.77,39.22c1.54,3.9,2.56,6.74,3.08,8.54.51,1.79.77,3.21.77,4.23,0,1.13-.21,2.08-.62,2.85-.41.77-1.38,1.41-2.92,1.92-1.54.51-3.79.87-6.77,1.08-2.97.2-7.02.31-12.15.31-4.31,0-7.74-.1-10.3-.31Z"/>
</svg>