<?xml version="1.0" encoding="UTF-8"?>
<svg id="Error" xmlns="http://www.w3.org/2000/svg" viewBox="0 0 990.08 990.36">
  <defs>
    <style>
      .cls-1 {
        fill: red;
        stroke-width: 0px;
      }

      .cls-2 {
        fill: none;
        stroke: #c00000;
        stroke-miterlimit: 10;
        stroke-width: 10px;
      }
    </style>
  </defs>
  <path class="cls-1" d="M255.04,400.25c-6.19-7.55-14.13-13.44-23.83-17.68-9.7-4.23-22.43-6.35-38.18-6.35h-25.98v171.88h26.76c14.06,0,25.91-1.82,35.55-5.47,9.63-3.64,17.68-9.15,24.12-16.5,6.45-7.35,11.26-16.5,14.45-27.44,3.19-10.94,4.79-23.7,4.79-38.28,0-11.98-1.4-23.11-4.2-33.4-2.8-10.28-7.29-19.2-13.48-26.76ZM495.08,5.36C224.46,5.36,5.08,224.74,5.08,495.36s219.38,490,490,490,490-219.38,490-490S765.7,5.36,495.08,5.36ZM316.76,518.12c-6.05,16.47-14.75,29.92-26.07,40.33-11.33,10.42-25.1,18.07-41.31,22.95s-35.52,7.32-57.91,7.32h-60.35c-4.3,0-7.91-1.27-10.84-3.81s-4.39-6.67-4.39-12.4v-220.31c0-5.73,1.46-9.86,4.39-12.4s6.54-3.81,10.84-3.81h64.84c22.52,0,41.63,2.64,57.32,7.91,15.69,5.27,28.91,13.09,39.65,23.44s18.91,23.14,24.51,38.38c5.6,15.23,8.4,32.88,8.4,52.93,0,23.18-3.03,43-9.08,59.47ZM662.56,581.69c0,1.3-.36,2.47-1.07,3.52-.72,1.04-2.02,1.89-3.91,2.54-1.89.65-4.39,1.17-7.52,1.56s-7.1.59-11.91.59-8.59-.2-11.72-.59-5.6-.91-7.42-1.56c-1.83-.65-3.12-1.5-3.91-2.54-.78-1.04-1.17-2.21-1.17-3.52v-205.66h-.39l-73.24,205.47c-.52,1.69-1.37,3.09-2.54,4.2-1.17,1.11-2.77,1.99-4.79,2.64-2.02.65-4.59,1.07-7.71,1.27s-6.9.29-11.33.29-8.2-.17-11.33-.49c-3.12-.33-5.7-.85-7.71-1.56-2.02-.71-3.61-1.59-4.79-2.64-1.17-1.04-1.95-2.28-2.34-3.71l-70.7-205.47h-.39v205.66c0,1.3-.36,2.47-1.07,3.52-.72,1.04-2.05,1.89-4,2.54-1.95.65-4.46,1.17-7.52,1.56-3.06.39-7,.59-11.82.59s-8.59-.2-11.72-.59-5.63-.91-7.52-1.56c-1.89-.65-3.19-1.5-3.91-2.54-.72-1.04-1.07-2.21-1.07-3.52v-225.2c0-6.64,1.76-11.72,5.27-15.23s8.2-5.27,14.06-5.27h33.59c5.99,0,11.13.49,15.43,1.46s8.01,2.61,11.13,4.88c3.12,2.28,5.73,5.27,7.81,8.98,2.08,3.71,3.91,8.3,5.47,13.77l54.69,150.59h.78l56.64-150.2c1.69-5.47,3.55-10.09,5.57-13.87,2.02-3.77,4.36-6.84,7.03-9.18,2.67-2.34,5.83-4,9.47-4.98,3.64-.98,7.88-1.46,12.7-1.46h34.57c3.52,0,6.54.46,9.08,1.37,2.54.91,4.62,2.25,6.25,4,1.63,1.76,2.86,3.91,3.71,6.45.85,2.54,1.27,5.44,1.27,8.69v225.2ZM891.27,564.6c-.39,1.63-.91,3.03-1.56,4.2-.65,1.17-1.69,2.51-3.12,4-1.43,1.5-4.2,3.42-8.3,5.76s-9.12,4.59-15.04,6.74c-5.93,2.15-12.7,3.94-20.31,5.37-7.62,1.43-15.85,2.15-24.71,2.15-17.32,0-32.94-2.67-46.88-8.01-13.93-5.34-25.78-13.31-35.55-23.93-9.77-10.61-17.25-23.86-22.46-39.75-5.21-15.88-7.81-34.38-7.81-55.47s2.86-40.56,8.59-57.23c5.73-16.67,13.74-30.66,24.02-41.99,10.28-11.33,22.62-19.92,37.01-25.78,14.39-5.86,30.24-8.79,47.56-8.79,7.03,0,13.8.59,20.31,1.76,6.51,1.17,12.53,2.7,18.07,4.59,5.53,1.89,10.51,4.07,14.94,6.54,4.42,2.48,7.52,4.59,9.28,6.35s2.96,3.22,3.61,4.39c.65,1.17,1.17,2.67,1.56,4.49.39,1.83.68,3.97.88,6.45.2,2.48.29,5.54.29,9.18,0,3.91-.13,7.23-.39,9.96-.26,2.73-.72,4.95-1.37,6.64-.65,1.69-1.43,2.93-2.34,3.71-.91.78-1.95,1.17-3.12,1.17-1.95,0-4.43-1.14-7.42-3.42-3-2.28-6.87-4.82-11.62-7.62-4.75-2.8-10.42-5.34-16.99-7.62-6.58-2.28-14.42-3.42-23.54-3.42-10.03,0-18.98,2.05-26.86,6.15-7.88,4.1-14.58,9.96-20.12,17.58-5.54,7.62-9.74,16.83-12.6,27.64-2.87,10.81-4.3,22.98-4.3,36.52,0,14.84,1.53,27.7,4.59,38.57,3.06,10.87,7.42,19.82,13.09,26.86s12.5,12.27,20.51,15.72c8.01,3.45,17.02,5.18,27.05,5.18,9.11,0,16.99-1.07,23.63-3.22s12.33-4.52,17.09-7.13c4.75-2.6,8.66-4.95,11.72-7.03,3.06-2.08,5.44-3.12,7.13-3.12,1.3,0,2.34.26,3.12.78.78.52,1.43,1.56,1.95,3.12.52,1.56.91,3.74,1.17,6.54.26,2.8.39,6.54.39,11.23,0,3.26-.1,6.02-.29,8.3-.2,2.28-.49,4.23-.88,5.86Z"/>
  <path class="cls-2" d="M255.04,400.25c-6.19-7.55-14.13-13.44-23.83-17.68-9.7-4.23-22.43-6.35-38.18-6.35h-25.98v171.88h26.76c14.06,0,25.91-1.82,35.55-5.47,9.63-3.64,17.68-9.15,24.12-16.5,6.45-7.35,11.26-16.5,14.45-27.44,3.19-10.94,4.79-23.7,4.79-38.28,0-11.98-1.4-23.11-4.2-33.4-2.8-10.28-7.29-19.2-13.48-26.76ZM495.08,5.36C224.46,5.36,5.08,224.74,5.08,495.36s219.38,490,490,490,490-219.38,490-490S765.7,5.36,495.08,5.36ZM316.76,518.12c-6.05,16.47-14.75,29.92-26.07,40.33-11.33,10.42-25.1,18.07-41.31,22.95s-35.52,7.32-57.91,7.32h-60.35c-4.3,0-7.91-1.27-10.84-3.81s-4.39-6.67-4.39-12.4v-220.31c0-5.73,1.46-9.86,4.39-12.4s6.54-3.81,10.84-3.81h64.84c22.52,0,41.63,2.64,57.32,7.91,15.69,5.27,28.91,13.09,39.65,23.44s18.91,23.14,24.51,38.38c5.6,15.23,8.4,32.88,8.4,52.93,0,23.18-3.03,43-9.08,59.47ZM662.56,581.69c0,1.3-.36,2.47-1.07,3.52-.72,1.04-2.02,1.89-3.91,2.54-1.89.65-4.39,1.17-7.52,1.56s-7.1.59-11.91.59-8.59-.2-11.72-.59-5.6-.91-7.42-1.56c-1.83-.65-3.12-1.5-3.91-2.54-.78-1.04-1.17-2.21-1.17-3.52v-205.66h-.39l-73.24,205.47c-.52,1.69-1.37,3.09-2.54,4.2-1.17,1.11-2.77,1.99-4.79,2.64-2.02.65-4.59,1.07-7.71,1.27s-6.9.29-11.33.29-8.2-.17-11.33-.49c-3.12-.33-5.7-.85-7.71-1.56-2.02-.71-3.61-1.59-4.79-2.64-1.17-1.04-1.95-2.28-2.34-3.71l-70.7-205.47h-.39v205.66c0,1.3-.36,2.47-1.07,3.52-.72,1.04-2.05,1.89-4,2.54-1.95.65-4.46,1.17-7.52,1.56-3.06.39-7,.59-11.82.59s-8.59-.2-11.72-.59-5.63-.91-7.52-1.56c-1.89-.65-3.19-1.5-3.91-2.54-.72-1.04-1.07-2.21-1.07-3.52v-225.2c0-6.64,1.76-11.72,5.27-15.23s8.2-5.27,14.06-5.27h33.59c5.99,0,11.13.49,15.43,1.46s8.01,2.61,11.13,4.88c3.12,2.28,5.73,5.27,7.81,8.98,2.08,3.71,3.91,8.3,5.47,13.77l54.69,150.59h.78l56.64-150.2c1.69-5.47,3.55-10.09,5.57-13.87,2.02-3.77,4.36-6.84,7.03-9.18,2.67-2.34,5.83-4,9.47-4.98,3.64-.98,7.88-1.46,12.7-1.46h34.57c3.52,0,6.54.46,9.08,1.37,2.54.91,4.62,2.25,6.25,4,1.63,1.76,2.86,3.91,3.71,6.45.85,2.54,1.27,5.44,1.27,8.69v225.2ZM891.27,564.6c-.39,1.63-.91,3.03-1.56,4.2-.65,1.17-1.69,2.51-3.12,4-1.43,1.5-4.2,3.42-8.3,5.76s-9.12,4.59-15.04,6.74c-5.93,2.15-12.7,3.94-20.31,5.37-7.62,1.43-15.85,2.15-24.71,2.15-17.32,0-32.94-2.67-46.88-8.01-13.93-5.34-25.78-13.31-35.55-23.93-9.77-10.61-17.25-23.86-22.46-39.75-5.21-15.88-7.81-34.38-7.81-55.47s2.86-40.56,8.59-57.23c5.73-16.67,13.74-30.66,24.02-41.99,10.28-11.33,22.62-19.92,37.01-25.78,14.39-5.86,30.24-8.79,47.56-8.79,7.03,0,13.8.59,20.31,1.76,6.51,1.17,12.53,2.7,18.07,4.59,5.53,1.89,10.51,4.07,14.94,6.54,4.42,2.48,7.52,4.59,9.28,6.35s2.96,3.22,3.61,4.39c.65,1.17,1.17,2.67,1.56,4.49.39,1.83.68,3.97.88,6.45.2,2.48.29,5.54.29,9.18,0,3.91-.13,7.23-.39,9.96-.26,2.73-.72,4.95-1.37,6.64-.65,1.69-1.43,2.93-2.34,3.71-.91.78-1.95,1.17-3.12,1.17-1.95,0-4.43-1.14-7.42-3.42-3-2.28-6.87-4.82-11.62-7.62-4.75-2.8-10.42-5.34-16.99-7.62-6.58-2.28-14.42-3.42-23.54-3.42-10.03,0-18.98,2.05-26.86,6.15-7.88,4.1-14.58,9.96-20.12,17.58-5.54,7.62-9.74,16.83-12.6,27.64-2.87,10.81-4.3,22.98-4.3,36.52,0,14.84,1.53,27.7,4.59,38.57,3.06,10.87,7.42,19.82,13.09,26.86s12.5,12.27,20.51,15.72c8.01,3.45,17.02,5.18,27.05,5.18,9.11,0,16.99-1.07,23.63-3.22s12.33-4.52,17.09-7.13c4.75-2.6,8.66-4.95,11.72-7.03,3.06-2.08,5.44-3.12,7.13-3.12,1.3,0,2.34.26,3.12.78.78.52,1.43,1.56,1.95,3.12.52,1.56.91,3.74,1.17,6.54.26,2.8.39,6.54.39,11.23,0,3.26-.1,6.02-.29,8.3-.2,2.28-.49,4.23-.88,5.86Z"/>
</svg>