<?xml version="1.0" encoding="UTF-8"?>
<svg id="EM-Error" xmlns="http://www.w3.org/2000/svg" viewBox="0 0 992.95 860.31">
  <defs>
    <style>
      .cls-1 {
        fill: red;
        stroke-width: 0px;
      }

      .cls-2 {
        fill: none;
        stroke: #c00000;
        stroke-miterlimit: 10;
        stroke-width: 10px;
      }
    </style>
  </defs>
  <path class="cls-1" d="M739.92,431.81L495.57,10l-243.12,422.52L9.33,855.05l487.48-.71,487.48-.71-244.36-421.81ZM401.29,704.75c-.33,2.54-.81,4.59-1.46,6.15-.65,1.56-1.46,2.7-2.44,3.42-.98.72-2.05,1.07-3.22,1.07h-126.95c-4.3,0-7.91-1.27-10.84-3.81s-4.39-6.67-4.39-12.4v-220.31c0-5.73,1.46-9.86,4.39-12.4s6.54-3.81,10.84-3.81h126.17c1.17,0,2.21.33,3.12.98.91.65,1.69,1.79,2.34,3.42.65,1.63,1.14,3.71,1.46,6.25.32,2.54.49,5.76.49,9.67,0,3.65-.17,6.74-.49,9.28-.33,2.54-.81,4.59-1.46,6.15-.65,1.56-1.43,2.7-2.34,3.42-.91.72-1.95,1.07-3.12,1.07h-90.23v61.72h76.37c1.17,0,2.25.36,3.22,1.07.98.72,1.79,1.83,2.44,3.32.65,1.5,1.14,3.52,1.46,6.05.32,2.54.49,5.63.49,9.28s-.17,6.9-.49,9.38c-.33,2.48-.81,4.46-1.46,5.96-.65,1.5-1.46,2.57-2.44,3.22-.98.65-2.05.98-3.22.98h-76.37v71.29h91.02c1.17,0,2.25.36,3.22,1.07.98.72,1.79,1.86,2.44,3.42.65,1.56,1.14,3.61,1.46,6.15.32,2.54.49,5.7.49,9.47s-.17,6.93-.49,9.47ZM740.55,711.88c-.72,1.04-2.02,1.89-3.91,2.54-1.89.65-4.39,1.17-7.52,1.56s-7.1.59-11.91.59-8.59-.2-11.72-.59-5.6-.91-7.42-1.56c-1.83-.65-3.12-1.5-3.91-2.54-.78-1.04-1.17-2.21-1.17-3.52v-205.66h-.39l-73.24,205.47c-.52,1.69-1.37,3.09-2.54,4.2-1.17,1.11-2.77,1.99-4.79,2.64-2.02.65-4.59,1.07-7.71,1.27s-6.9.29-11.33.29-8.2-.17-11.33-.49c-3.12-.33-5.7-.84-7.71-1.56-2.02-.71-3.61-1.59-4.79-2.64-1.17-1.04-1.95-2.28-2.34-3.71l-70.7-205.47h-.39v205.66c0,1.3-.36,2.48-1.07,3.52-.72,1.04-2.05,1.89-4,2.54-1.95.65-4.46,1.17-7.52,1.56-3.06.39-7,.59-11.82.59s-8.59-.2-11.72-.59-5.63-.91-7.52-1.56c-1.89-.65-3.19-1.5-3.91-2.54-.72-1.04-1.07-2.21-1.07-3.52v-225.2c0-6.64,1.76-11.72,5.27-15.23s8.2-5.27,14.06-5.27h33.59c5.99,0,11.13.49,15.43,1.46s8.01,2.61,11.13,4.88c3.12,2.28,5.73,5.27,7.81,8.98,2.08,3.71,3.91,8.3,5.47,13.77l54.69,150.59h.78l56.64-150.2c1.69-5.47,3.55-10.09,5.57-13.87,2.02-3.77,4.36-6.84,7.03-9.18,2.67-2.34,5.83-4,9.47-4.98,3.64-.98,7.88-1.46,12.7-1.46h34.57c3.52,0,6.54.46,9.08,1.37,2.54.91,4.62,2.25,6.25,4,1.63,1.76,2.86,3.91,3.71,6.45.85,2.54,1.27,5.44,1.27,8.69v225.2c0,1.3-.36,2.48-1.07,3.52Z"/>
  <path class="cls-2" d="M739.92,431.81L495.57,10l-243.12,422.52L9.33,855.05l487.48-.71,487.48-.71-244.36-421.81ZM401.29,704.75c-.33,2.54-.81,4.59-1.46,6.15-.65,1.56-1.46,2.7-2.44,3.42-.98.72-2.05,1.07-3.22,1.07h-126.95c-4.3,0-7.91-1.27-10.84-3.81s-4.39-6.67-4.39-12.4v-220.31c0-5.73,1.46-9.86,4.39-12.4s6.54-3.81,10.84-3.81h126.17c1.17,0,2.21.33,3.12.98.91.65,1.69,1.79,2.34,3.42.65,1.63,1.14,3.71,1.46,6.25.32,2.54.49,5.76.49,9.67,0,3.65-.17,6.74-.49,9.28-.33,2.54-.81,4.59-1.46,6.15-.65,1.56-1.43,2.7-2.34,3.42-.91.72-1.95,1.07-3.12,1.07h-90.23v61.72h76.37c1.17,0,2.25.36,3.22,1.07.98.72,1.79,1.83,2.44,3.32.65,1.5,1.14,3.52,1.46,6.05.32,2.54.49,5.63.49,9.28s-.17,6.9-.49,9.38c-.33,2.48-.81,4.46-1.46,5.96-.65,1.5-1.46,2.57-2.44,3.22-.98.65-2.05.98-3.22.98h-76.37v71.29h91.02c1.17,0,2.25.36,3.22,1.07.98.72,1.79,1.86,2.44,3.42.65,1.56,1.14,3.61,1.46,6.15.32,2.54.49,5.7.49,9.47s-.17,6.93-.49,9.47ZM740.55,711.88c-.72,1.04-2.02,1.89-3.91,2.54-1.89.65-4.39,1.17-7.52,1.56s-7.1.59-11.91.59-8.59-.2-11.72-.59-5.6-.91-7.42-1.56c-1.83-.65-3.12-1.5-3.91-2.54-.78-1.04-1.17-2.21-1.17-3.52v-205.66h-.39l-73.24,205.47c-.52,1.69-1.37,3.09-2.54,4.2-1.17,1.11-2.77,1.99-4.79,2.64-2.02.65-4.59,1.07-7.71,1.27s-6.9.29-11.33.29-8.2-.17-11.33-.49c-3.12-.33-5.7-.84-7.71-1.56-2.02-.71-3.61-1.59-4.79-2.64-1.17-1.04-1.95-2.28-2.34-3.71l-70.7-205.47h-.39v205.66c0,1.3-.36,2.48-1.07,3.52-.72,1.04-2.05,1.89-4,2.54-1.95.65-4.46,1.17-7.52,1.56-3.06.39-7,.59-11.82.59s-8.59-.2-11.72-.59-5.63-.91-7.52-1.56c-1.89-.65-3.19-1.5-3.91-2.54-.72-1.04-1.07-2.21-1.07-3.52v-225.2c0-6.64,1.76-11.72,5.27-15.23s8.2-5.27,14.06-5.27h33.59c5.99,0,11.13.49,15.43,1.46s8.01,2.61,11.13,4.88c3.12,2.28,5.73,5.27,7.81,8.98,2.08,3.71,3.91,8.3,5.47,13.77l54.69,150.59h.78l56.64-150.2c1.69-5.47,3.55-10.09,5.57-13.87,2.02-3.77,4.36-6.84,7.03-9.18,2.67-2.34,5.83-4,9.47-4.98,3.64-.98,7.88-1.46,12.7-1.46h34.57c3.52,0,6.54.46,9.08,1.37,2.54.91,4.62,2.25,6.25,4,1.63,1.76,2.86,3.91,3.71,6.45.85,2.54,1.27,5.44,1.27,8.69v225.2c0,1.3-.36,2.48-1.07,3.52Z"/>
</svg>