<?xml version="1.0" encoding="UTF-8"?>
<svg id="Capa_2" data-name="Capa 2" xmlns="http://www.w3.org/2000/svg" viewBox="0 0 977.71 851.23">
  <defs>
    <style>
      .cls-1 {
        fill: none;
        stroke: #0000c0;
        stroke-miterlimit: 10;
        stroke-width: 10px;
      }

      .cls-2 {
        fill: blue;
        stroke-width: 0px;
      }
    </style>
  </defs>
  <path class="cls-2" d="M730.3,5H247.28L5.77,423.31l241.51,418.31h483.02l241.51-418.31L730.3,5ZM240.69,518.51c-.29,2.4-.73,4.39-1.32,5.98-.59,1.58-1.32,2.72-2.2,3.43s-1.91,1.05-3.08,1.05h-104.24c-3.87,0-7.12-1.14-9.76-3.43s-3.96-6-3.96-11.16v-206.54c0-1.17.38-2.22,1.14-3.16.76-.94,2.02-1.7,3.78-2.29,1.76-.58,4.13-1.05,7.12-1.41s6.71-.53,11.16-.53,8.32.18,11.25.53c2.93.35,5.27.82,7.03,1.41,1.76.59,3.02,1.35,3.78,2.29.76.94,1.14,1.99,1.14,3.16v182.99h71.54c1.17,0,2.2.32,3.08.97.88.65,1.61,1.7,2.2,3.16.58,1.47,1.02,3.4,1.32,5.8.29,2.4.44,5.36.44,8.88s-.15,6.48-.44,8.88ZM402.76,519.39c-.29,2.29-.73,4.13-1.32,5.54-.59,1.41-1.32,2.43-2.2,3.08-.88.65-1.85.97-2.9.97h-114.26c-3.87,0-7.12-1.14-9.76-3.43s-3.96-6-3.96-11.16v-198.28c0-5.16,1.32-8.88,3.96-11.16s5.89-3.43,9.76-3.43h113.55c1.05,0,1.99.29,2.81.88.82.59,1.52,1.61,2.11,3.08.58,1.47,1.02,3.34,1.32,5.62.29,2.29.44,5.19.44,8.7,0,3.28-.15,6.06-.44,8.35-.29,2.29-.73,4.13-1.32,5.54-.59,1.41-1.29,2.43-2.11,3.08-.82.65-1.76.97-2.81.97h-81.21v55.55h68.73c1.05,0,2.02.32,2.9.97.88.65,1.61,1.64,2.2,2.99.58,1.35,1.02,3.16,1.32,5.45.29,2.29.44,5.07.44,8.35s-.15,6.21-.44,8.44c-.29,2.23-.73,4.02-1.32,5.36-.59,1.35-1.32,2.32-2.2,2.9-.88.59-1.85.88-2.9.88h-68.73v64.16h81.91c1.05,0,2.02.32,2.9.97.88.65,1.61,1.67,2.2,3.08.58,1.41,1.02,3.25,1.32,5.54.29,2.29.44,5.13.44,8.53s-.15,6.24-.44,8.53ZM594.89,329.19c-.29,2.4-.73,4.34-1.32,5.8-.59,1.47-1.32,2.55-2.2,3.25s-1.85,1.05-2.9,1.05h-56.95v183.34c0,1.17-.38,2.23-1.14,3.16-.76.94-2.02,1.7-3.78,2.29-1.76.59-4.13,1.05-7.12,1.41s-6.71.53-11.16.53-8.17-.18-11.16-.53c-2.99-.35-5.36-.82-7.12-1.41-1.76-.58-3.02-1.35-3.78-2.29-.76-.94-1.14-1.99-1.14-3.16v-183.34h-56.95c-1.17,0-2.17-.35-2.99-1.05-.82-.7-1.52-1.79-2.11-3.25-.59-1.46-1.03-3.4-1.32-5.8-.29-2.4-.44-5.3-.44-8.7s.15-6.5.44-8.96c.29-2.46.73-4.42,1.32-5.89.58-1.46,1.29-2.52,2.11-3.16.82-.64,1.82-.97,2.99-.97h160.31c1.05,0,2.02.32,2.9.97.88.65,1.61,1.7,2.2,3.16.58,1.47,1.02,3.43,1.32,5.89.29,2.46.44,5.45.44,8.96s-.15,6.3-.44,8.7ZM668.63,522.64c0,1.17-.38,2.23-1.14,3.16-.76.94-2.02,1.7-3.78,2.29-1.76.59-4.1,1.05-7.03,1.41-2.93.35-6.68.53-11.25.53s-8.17-.18-11.16-.53-5.36-.82-7.12-1.41c-1.76-.58-3.02-1.35-3.78-2.29-.76-.94-1.14-1.99-1.14-3.16v-214.8c0-1.17.38-2.22,1.14-3.16.76-.94,2.05-1.7,3.87-2.29,1.82-.58,4.19-1.05,7.12-1.41,2.93-.35,6.62-.53,11.07-.53s8.32.18,11.25.53c2.93.35,5.27.82,7.03,1.41,1.76.59,3.02,1.35,3.78,2.29.76.94,1.14,1.99,1.14,3.16v214.8ZM851.26,524.92c-.59,1.41-1.32,2.43-2.2,3.08-.88.65-1.85.97-2.9.97h-114.26c-3.87,0-7.12-1.14-9.76-3.43s-3.96-6-3.96-11.16v-198.28c0-5.16,1.32-8.88,3.96-11.16s5.89-3.43,9.76-3.43h113.55c1.05,0,1.99.29,2.81.88.82.59,1.52,1.61,2.11,3.08.58,1.47,1.02,3.34,1.32,5.62.29,2.29.44,5.19.44,8.7,0,3.28-.15,6.06-.44,8.35-.29,2.29-.73,4.13-1.32,5.54-.59,1.41-1.29,2.43-2.11,3.08-.82.65-1.76.97-2.81.97h-81.21v55.55h68.73c1.05,0,2.02.32,2.9.97.88.65,1.61,1.64,2.2,2.99.58,1.35,1.02,3.16,1.32,5.45.29,2.29.44,5.07.44,8.35s-.15,6.21-.44,8.44c-.29,2.23-.73,4.02-1.32,5.36-.59,1.35-1.32,2.32-2.2,2.9-.88.59-1.85.88-2.9.88h-68.73v64.16h81.91c1.05,0,2.02.32,2.9.97.88.65,1.61,1.67,2.2,3.08.58,1.41,1.02,3.25,1.32,5.54.29,2.29.44,5.13.44,8.53s-.15,6.24-.44,8.53c-.29,2.29-.73,4.13-1.32,5.54Z"/>
  <path class="cls-1" d="M730.3,5H247.28L5.77,423.31l241.51,418.31h483.02l241.51-418.31L730.3,5ZM240.69,518.51c-.29,2.4-.73,4.39-1.32,5.98-.59,1.58-1.32,2.72-2.2,3.43s-1.91,1.05-3.08,1.05h-104.24c-3.87,0-7.12-1.14-9.76-3.43s-3.96-6-3.96-11.16v-206.54c0-1.17.38-2.22,1.14-3.16.76-.94,2.02-1.7,3.78-2.29,1.76-.58,4.13-1.05,7.12-1.41s6.71-.53,11.16-.53,8.32.18,11.25.53c2.93.35,5.27.82,7.03,1.41,1.76.59,3.02,1.35,3.78,2.29.76.94,1.14,1.99,1.14,3.16v182.99h71.54c1.17,0,2.2.32,3.08.97.88.65,1.61,1.7,2.2,3.16.58,1.47,1.02,3.4,1.32,5.8.29,2.4.44,5.36.44,8.88s-.15,6.48-.44,8.88ZM402.76,519.39c-.29,2.29-.73,4.13-1.32,5.54-.59,1.41-1.32,2.43-2.2,3.08-.88.65-1.85.97-2.9.97h-114.26c-3.87,0-7.12-1.14-9.76-3.43s-3.96-6-3.96-11.16v-198.28c0-5.16,1.32-8.88,3.96-11.16s5.89-3.43,9.76-3.43h113.55c1.05,0,1.99.29,2.81.88.82.59,1.52,1.61,2.11,3.08.58,1.47,1.02,3.34,1.32,5.62.29,2.29.44,5.19.44,8.7,0,3.28-.15,6.06-.44,8.35-.29,2.29-.73,4.13-1.32,5.54-.59,1.41-1.29,2.43-2.11,3.08-.82.65-1.76.97-2.81.97h-81.21v55.55h68.73c1.05,0,2.02.32,2.9.97.88.65,1.61,1.64,2.2,2.99.58,1.35,1.02,3.16,1.32,5.45.29,2.29.44,5.07.44,8.35s-.15,6.21-.44,8.44c-.29,2.23-.73,4.02-1.32,5.36-.59,1.35-1.32,2.32-2.2,2.9-.88.59-1.85.88-2.9.88h-68.73v64.16h81.91c1.05,0,2.02.32,2.9.97.88.65,1.61,1.67,2.2,3.08.58,1.41,1.02,3.25,1.32,5.54.29,2.29.44,5.13.44,8.53s-.15,6.24-.44,8.53ZM594.89,329.19c-.29,2.4-.73,4.34-1.32,5.8-.59,1.47-1.32,2.55-2.2,3.25s-1.85,1.05-2.9,1.05h-56.95v183.34c0,1.17-.38,2.23-1.14,3.16-.76.94-2.02,1.7-3.78,2.29-1.76.59-4.13,1.05-7.12,1.41s-6.71.53-11.16.53-8.17-.18-11.16-.53c-2.99-.35-5.36-.82-7.12-1.41-1.76-.58-3.02-1.35-3.78-2.29-.76-.94-1.14-1.99-1.14-3.16v-183.34h-56.95c-1.17,0-2.17-.35-2.99-1.05-.82-.7-1.52-1.79-2.11-3.25-.59-1.46-1.03-3.4-1.32-5.8-.29-2.4-.44-5.3-.44-8.7s.15-6.5.44-8.96c.29-2.46.73-4.42,1.32-5.89.58-1.46,1.29-2.52,2.11-3.16.82-.64,1.82-.97,2.99-.97h160.31c1.05,0,2.02.32,2.9.97.88.65,1.61,1.7,2.2,3.16.58,1.47,1.02,3.43,1.32,5.89.29,2.46.44,5.45.44,8.96s-.15,6.3-.44,8.7ZM668.63,522.64c0,1.17-.38,2.23-1.14,3.16-.76.94-2.02,1.7-3.78,2.29-1.76.59-4.1,1.05-7.03,1.41-2.93.35-6.68.53-11.25.53s-8.17-.18-11.16-.53-5.36-.82-7.12-1.41c-1.76-.58-3.02-1.35-3.78-2.29-.76-.94-1.14-1.99-1.14-3.16v-214.8c0-1.17.38-2.22,1.14-3.16.76-.94,2.05-1.7,3.87-2.29,1.82-.58,4.19-1.05,7.12-1.41,2.93-.35,6.62-.53,11.07-.53s8.32.18,11.25.53c2.93.35,5.27.82,7.03,1.41,1.76.59,3.02,1.35,3.78,2.29.76.94,1.14,1.99,1.14,3.16v214.8ZM851.26,524.92c-.59,1.41-1.32,2.43-2.2,3.08-.88.65-1.85.97-2.9.97h-114.26c-3.87,0-7.12-1.14-9.76-3.43s-3.96-6-3.96-11.16v-198.28c0-5.16,1.32-8.88,3.96-11.16s5.89-3.43,9.76-3.43h113.55c1.05,0,1.99.29,2.81.88.82.59,1.52,1.61,2.11,3.08.58,1.47,1.02,3.34,1.32,5.62.29,2.29.44,5.19.44,8.7,0,3.28-.15,6.06-.44,8.35-.29,2.29-.73,4.13-1.32,5.54-.59,1.41-1.29,2.43-2.11,3.08-.82.65-1.76.97-2.81.97h-81.21v55.55h68.73c1.05,0,2.02.32,2.9.97.88.65,1.61,1.64,2.2,2.99.58,1.35,1.02,3.16,1.32,5.45.29,2.29.44,5.07.44,8.35s-.15,6.21-.44,8.44c-.29,2.23-.73,4.02-1.32,5.36-.59,1.35-1.32,2.32-2.2,2.9-.88.59-1.85.88-2.9.88h-68.73v64.16h81.91c1.05,0,2.02.32,2.9.97.88.65,1.61,1.67,2.2,3.08.58,1.41,1.02,3.25,1.32,5.54.29,2.29.44,5.13.44,8.53s-.15,6.24-.44,8.53c-.29,2.29-.73,4.13-1.32,5.54Z"/>
</svg>