<?xml version="1.0" encoding="UTF-8"?>
<svg id="Capa_2" data-name="Capa 2" xmlns="http://www.w3.org/2000/svg" viewBox="0 0 642.33 910.28">
  <defs>
    <style>
      .cls-1 {
        fill: #0000c0;
      }

      .cls-1, .cls-2 {
        stroke-width: 0px;
      }

      .cls-2 {
        fill: blue;
      }
    </style>
  </defs>
  <g>
    <circle class="cls-2" cx="108.33" cy="826" r="79"/>
    <path class="cls-1" d="M108.33,752c40.8,0,74,33.2,74,74s-33.2,74-74,74-74-33.2-74-74,33.2-74,74-74M108.33,742c-46.39,0-84,37.61-84,84s37.61,84,84,84,84-37.61,84-84-37.61-84-84-84h0Z"/>
  </g>
  <g>
    <circle class="cls-2" cx="548.33" cy="826" r="79"/>
    <path class="cls-1" d="M548.33,752c40.8,0,74,33.2,74,74s-33.2,74-74,74-74-33.2-74-74,33.2-74,74-74M548.33,742c-46.39,0-84,37.61-84,84s37.61,84,84,84,84-37.61,84-84-37.61-84-84-84h0Z"/>
  </g>
  <g>
    <path class="cls-2" d="M67.24,708l-1.83-109.72c-1.36-81.79,8.62-116.16,37.5-193.29,6-12.05,14.25-26.23,22.98-41.24,30.33-52.14,68.08-117.04,46.83-154.84-10.87-19.35-34.85-29.13-73.3-29.91H8.23S5.42,35.95,5.42,35.95l99.08-.95h.13c9.75-.62,19.32-.92,28.42-.92,41.8,0,76.89,6.43,104.29,19.1,24.3,11.24,42.69,27.45,54.65,48.19,14.3,24.78,19.43,56.49,14.85,91.7-4.05,31.13-15.73,64.61-32.87,94.28l-.11.2-15.54,33.64c-46.98,101.72-81.18,209.14-101.63,319.3l-12.53,67.51h-76.93Z"/>
    <path class="cls-1" d="M133.09,29.08v10c41.06,0,75.44,6.27,102.17,18.64,23.34,10.8,40.97,26.32,52.41,46.14,13.75,23.82,18.66,54.45,14.22,88.56-3.97,30.49-15.42,63.32-32.24,92.43l-.23.4-.19.41-15.44,33.43c-47.16,102.09-81.48,209.92-102,320.49l-11.78,63.43h-67.85l-1.75-104.8c-1.35-80.83,8.53-114.91,37.1-191.2,5.92-11.86,14.08-25.89,22.71-40.73,15.02-25.83,32.05-55.1,42.76-82.42,13.16-33.58,14.51-58.89,4.11-77.39-11.82-21.03-37.18-31.65-77.56-32.46h-.1s-.1,0-.1,0H13.13l-2.61-133.1,93.9-.9h.26s.26-.02.26-.02c9.64-.6,19.1-.9,28.11-.91l.03-10M133.06,29.08c-9.15,0-18.75.3-28.73.92L.33,31l3,153h96c149,3,35.08,146.32-1,219-29.06,77.59-39.29,112.53-37.91,195.36l1.91,114.64h86l13.29-71.6c20.39-109.84,54.4-216.7,101.25-318.12l15.44-33.43C335.84,190.3,344.69,29.06,133.06,29.08h0Z"/>
  </g>
  <g>
    <path class="cls-2" d="M508.94,708l-49.62-618.58c.11-46.57,38.02-84.42,84.61-84.42h20.77c39.97,0,72.5,32.46,72.61,72.41l-53.59,630.59h-74.79Z"/>
    <path class="cls-1" d="M564.71,10c37.15,0,67.39,30.11,67.61,67.2l-53.18,625.8h-65.58l-49.23-613.77c.21-43.72,35.84-79.23,79.61-79.23h20.77M564.71,0h-20.77c-49.49,0-89.61,40.12-89.61,89.61l50,623.39h84l54-635.39c0-42.87-34.75-77.61-77.61-77.61h0Z"/>
  </g>
</svg>