<?xml version="1.0" encoding="UTF-8"?>
<svg id="Capa_1" data-name="Capa 1" xmlns="http://www.w3.org/2000/svg" viewBox="0 0 968.84 968.84">
  <defs>
    <style>
      .cls-1 {
        fill: none;
        stroke: #0000c0;
        stroke-miterlimit: 10;
        stroke-width: 10px;
      }

      .cls-2 {
        fill: blue;
        stroke-width: 0px;
      }
    </style>
  </defs>
  <path class="cls-2" d="M433.81,410.7c-4.79-5.85-10.95-10.42-18.47-13.7-7.52-3.28-17.38-4.92-29.59-4.92h-20.13v133.2h20.74c10.9,0,20.08-1.41,27.55-4.24,7.47-2.82,13.7-7.09,18.69-12.79,5-5.7,8.73-12.79,11.2-21.27,2.47-8.48,3.71-18.37,3.71-29.67,0-9.28-1.09-17.91-3.25-25.88-2.17-7.97-5.65-14.88-10.45-20.74ZM484.42,5C219.64,5,5,219.64,5,484.42s214.64,479.42,479.42,479.42,479.42-214.64,479.42-479.42S749.19,5,484.42,5ZM283.27,551.32c0,1.01-.28,1.92-.83,2.72-.56.81-1.57,1.46-3.03,1.97-1.46.51-3.41.91-5.83,1.21s-5.5.45-9.23.45-6.66-.15-9.08-.45-4.34-.71-5.75-1.21c-1.41-.5-2.42-1.16-3.03-1.97-.61-.81-.91-1.71-.91-2.72v-159.39h-.3l-56.76,159.24c-.4,1.31-1.06,2.4-1.97,3.25-.91.86-2.15,1.54-3.71,2.04-1.57.5-3.56.83-5.98.98-2.42.15-5.35.23-8.78.23s-6.36-.13-8.78-.38c-2.42-.25-4.42-.66-5.98-1.21-1.57-.55-2.8-1.23-3.71-2.04-.91-.81-1.51-1.76-1.82-2.88l-54.79-159.24h-.3v159.39c0,1.01-.28,1.92-.83,2.72-.56.81-1.59,1.46-3.1,1.97-1.51.51-3.46.91-5.83,1.21-2.37.3-5.43.45-9.16.45s-6.66-.15-9.08-.45-4.37-.71-5.83-1.21c-1.46-.5-2.47-1.16-3.03-1.97-.56-.81-.83-1.71-.83-2.72v-174.53c0-5.15,1.36-9.08,4.09-11.81s6.36-4.09,10.9-4.09h26.04c4.64,0,8.63.38,11.96,1.14s6.21,2.02,8.63,3.78c2.42,1.77,4.44,4.09,6.05,6.96,1.61,2.88,3.03,6.43,4.24,10.67l42.38,116.7h.61l43.9-116.4c1.31-4.24,2.75-7.82,4.31-10.75,1.56-2.93,3.38-5.3,5.45-7.11,2.07-1.82,4.52-3.1,7.34-3.86,2.82-.76,6.1-1.14,9.84-1.14h26.79c2.72,0,5.07.35,7.04,1.06,1.97.71,3.58,1.74,4.84,3.1,1.26,1.36,2.22,3.03,2.88,5,.66,1.97.98,4.21.98,6.74v174.53ZM481.64,502.05c-4.69,12.77-11.43,23.19-20.21,31.26-8.78,8.07-19.45,14-32.01,17.79-12.56,3.79-27.53,5.68-44.88,5.68h-46.77c-3.33,0-6.13-.98-8.4-2.95-2.27-1.97-3.41-5.17-3.41-9.61v-170.74c0-4.44,1.14-7.64,3.41-9.61s5.07-2.95,8.4-2.95h50.25c17.46,0,32.26,2.04,44.43,6.13,12.16,4.09,22.4,10.14,30.73,18.16,8.33,8.02,14.66,17.94,19,29.74,4.34,11.81,6.51,25.48,6.51,41.02,0,17.96-2.35,33.33-7.04,46.09ZM749.64,551.32c0,1.01-.28,1.92-.83,2.72-.56.81-1.57,1.46-3.03,1.97-1.46.51-3.41.91-5.83,1.21s-5.5.45-9.23.45-6.66-.15-9.08-.45-4.34-.71-5.75-1.21c-1.41-.5-2.42-1.16-3.03-1.97-.61-.81-.91-1.71-.91-2.72v-159.39h-.3l-56.76,159.24c-.4,1.31-1.06,2.4-1.97,3.25-.91.86-2.15,1.54-3.71,2.04-1.57.5-3.56.83-5.98.98-2.42.15-5.35.23-8.78.23s-6.36-.13-8.78-.38c-2.42-.25-4.42-.66-5.98-1.21-1.57-.55-2.8-1.23-3.71-2.04-.91-.81-1.51-1.76-1.82-2.88l-54.79-159.24h-.3v159.39c0,1.01-.28,1.92-.83,2.72-.56.81-1.59,1.46-3.1,1.97-1.51.51-3.46.91-5.83,1.21-2.37.3-5.42.45-9.16.45s-6.66-.15-9.08-.45-4.37-.71-5.83-1.21c-1.46-.5-2.47-1.16-3.03-1.97-.56-.81-.83-1.71-.83-2.72v-174.53c0-5.15,1.36-9.08,4.09-11.81s6.36-4.09,10.9-4.09h26.04c4.64,0,8.63.38,11.96,1.14s6.21,2.02,8.63,3.78c2.42,1.77,4.44,4.09,6.05,6.96,1.61,2.88,3.03,6.43,4.24,10.67l42.38,116.7h.61l43.9-116.4c1.31-4.24,2.75-7.82,4.31-10.75,1.56-2.93,3.38-5.3,5.45-7.11,2.07-1.82,4.51-3.1,7.34-3.86,2.82-.76,6.1-1.14,9.84-1.14h26.79c2.72,0,5.07.35,7.04,1.06,1.97.71,3.58,1.74,4.84,3.1,1.26,1.36,2.22,3.03,2.88,5,.65,1.97.98,4.21.98,6.74v174.53ZM926.89,538.08c-.3,1.26-.71,2.35-1.21,3.25-.51.91-1.31,1.94-2.42,3.1-1.11,1.16-3.25,2.65-6.43,4.47-3.18,1.82-7.06,3.56-11.65,5.22-4.59,1.67-9.84,3.05-15.74,4.16-5.9,1.11-12.29,1.67-19.15,1.67-13.42,0-25.53-2.07-36.33-6.21-10.8-4.14-19.98-10.32-27.55-18.54-7.57-8.22-13.37-18.49-17.41-30.8-4.04-12.31-6.05-26.64-6.05-42.99s2.22-31.43,6.66-44.35c4.44-12.92,10.65-23.76,18.62-32.54,7.97-8.78,17.53-15.44,28.68-19.98,11.15-4.54,23.44-6.81,36.86-6.81,5.45,0,10.7.45,15.74,1.36,5.04.91,9.71,2.1,14,3.56,4.29,1.46,8.15,3.16,11.58,5.07,3.43,1.92,5.83,3.56,7.19,4.92,1.36,1.36,2.29,2.5,2.8,3.41.5.91.91,2.07,1.21,3.48.3,1.41.53,3.08.68,5,.15,1.92.23,4.29.23,7.11,0,3.03-.1,5.6-.3,7.72-.2,2.12-.56,3.84-1.06,5.15-.51,1.31-1.11,2.27-1.82,2.88-.71.61-1.51.91-2.42.91-1.51,0-3.43-.88-5.75-2.65-2.32-1.76-5.32-3.73-9.01-5.9-3.68-2.17-8.07-4.14-13.17-5.9-5.1-1.76-11.18-2.65-18.24-2.65-7.77,0-14.71,1.59-20.81,4.77-6.11,3.18-11.3,7.72-15.59,13.62-4.29,5.9-7.54,13.04-9.76,21.42-2.22,8.38-3.33,17.81-3.33,28.31,0,11.5,1.18,21.47,3.56,29.9,2.37,8.43,5.75,15.36,10.14,20.81,4.39,5.45,9.69,9.51,15.89,12.19,6.21,2.67,13.19,4.01,20.96,4.01,7.06,0,13.17-.83,18.32-2.5,5.15-1.67,9.56-3.51,13.24-5.53,3.68-2.02,6.71-3.83,9.08-5.45,2.37-1.61,4.21-2.42,5.53-2.42,1.01,0,1.82.2,2.42.61.61.4,1.11,1.21,1.51,2.42.4,1.21.71,2.9.91,5.07.2,2.17.3,5.07.3,8.7,0,2.52-.08,4.67-.23,6.43-.15,1.77-.38,3.28-.68,4.54Z"/>
  <path class="cls-1" d="M433.81,410.7c-4.79-5.85-10.95-10.42-18.47-13.7-7.52-3.28-17.38-4.92-29.59-4.92h-20.13v133.2h20.74c10.9,0,20.08-1.41,27.55-4.24,7.47-2.82,13.7-7.09,18.69-12.79,5-5.7,8.73-12.79,11.2-21.27,2.47-8.48,3.71-18.37,3.71-29.67,0-9.28-1.09-17.91-3.25-25.88-2.17-7.97-5.65-14.88-10.45-20.74ZM484.42,5C219.64,5,5,219.64,5,484.42s214.64,479.42,479.42,479.42,479.42-214.64,479.42-479.42S749.19,5,484.42,5ZM283.27,551.32c0,1.01-.28,1.92-.83,2.72-.56.81-1.57,1.46-3.03,1.97-1.46.51-3.41.91-5.83,1.21s-5.5.45-9.23.45-6.66-.15-9.08-.45-4.34-.71-5.75-1.21c-1.41-.5-2.42-1.16-3.03-1.97-.61-.81-.91-1.71-.91-2.72v-159.39h-.3l-56.76,159.24c-.4,1.31-1.06,2.4-1.97,3.25-.91.86-2.15,1.54-3.71,2.04-1.57.5-3.56.83-5.98.98-2.42.15-5.35.23-8.78.23s-6.36-.13-8.78-.38c-2.42-.25-4.42-.66-5.98-1.21-1.57-.55-2.8-1.23-3.71-2.04-.91-.81-1.51-1.76-1.82-2.88l-54.79-159.24h-.3v159.39c0,1.01-.28,1.92-.83,2.72-.56.81-1.59,1.46-3.1,1.97-1.51.51-3.46.91-5.83,1.21-2.37.3-5.43.45-9.16.45s-6.66-.15-9.08-.45-4.37-.71-5.83-1.21c-1.46-.5-2.47-1.16-3.03-1.97-.56-.81-.83-1.71-.83-2.72v-174.53c0-5.15,1.36-9.08,4.09-11.81s6.36-4.09,10.9-4.09h26.04c4.64,0,8.63.38,11.96,1.14s6.21,2.02,8.63,3.78c2.42,1.77,4.44,4.09,6.05,6.96,1.61,2.88,3.03,6.43,4.24,10.67l42.38,116.7h.61l43.9-116.4c1.31-4.24,2.75-7.82,4.31-10.75,1.56-2.93,3.38-5.3,5.45-7.11,2.07-1.82,4.52-3.1,7.34-3.86,2.82-.76,6.1-1.14,9.84-1.14h26.79c2.72,0,5.07.35,7.04,1.06,1.97.71,3.58,1.74,4.84,3.1,1.26,1.36,2.22,3.03,2.88,5,.66,1.97.98,4.21.98,6.74v174.53ZM481.64,502.05c-4.69,12.77-11.43,23.19-20.21,31.26-8.78,8.07-19.45,14-32.01,17.79-12.56,3.79-27.53,5.68-44.88,5.68h-46.77c-3.33,0-6.13-.98-8.4-2.95-2.27-1.97-3.41-5.17-3.41-9.61v-170.74c0-4.44,1.14-7.64,3.41-9.61s5.07-2.95,8.4-2.95h50.25c17.46,0,32.26,2.04,44.43,6.13,12.16,4.09,22.4,10.14,30.73,18.16,8.33,8.02,14.66,17.94,19,29.74,4.34,11.81,6.51,25.48,6.51,41.02,0,17.96-2.35,33.33-7.04,46.09ZM749.64,551.32c0,1.01-.28,1.92-.83,2.72-.56.81-1.57,1.46-3.03,1.97-1.46.51-3.41.91-5.83,1.21s-5.5.45-9.23.45-6.66-.15-9.08-.45-4.34-.71-5.75-1.21c-1.41-.5-2.42-1.16-3.03-1.97-.61-.81-.91-1.71-.91-2.72v-159.39h-.3l-56.76,159.24c-.4,1.31-1.06,2.4-1.97,3.25-.91.86-2.15,1.54-3.71,2.04-1.57.5-3.56.83-5.98.98-2.42.15-5.35.23-8.78.23s-6.36-.13-8.78-.38c-2.42-.25-4.42-.66-5.98-1.21-1.57-.55-2.8-1.23-3.71-2.04-.91-.81-1.51-1.76-1.82-2.88l-54.79-159.24h-.3v159.39c0,1.01-.28,1.92-.83,2.72-.56.81-1.59,1.46-3.1,1.97-1.51.51-3.46.91-5.83,1.21-2.37.3-5.42.45-9.16.45s-6.66-.15-9.08-.45-4.37-.71-5.83-1.21c-1.46-.5-2.47-1.16-3.03-1.97-.56-.81-.83-1.71-.83-2.72v-174.53c0-5.15,1.36-9.08,4.09-11.81s6.36-4.09,10.9-4.09h26.04c4.64,0,8.63.38,11.96,1.14s6.21,2.02,8.63,3.78c2.42,1.77,4.44,4.09,6.05,6.96,1.61,2.88,3.03,6.43,4.24,10.67l42.38,116.7h.61l43.9-116.4c1.31-4.24,2.75-7.82,4.31-10.75,1.56-2.93,3.38-5.3,5.45-7.11,2.07-1.82,4.51-3.1,7.34-3.86,2.82-.76,6.1-1.14,9.84-1.14h26.79c2.72,0,5.07.35,7.04,1.06,1.97.71,3.58,1.74,4.84,3.1,1.26,1.36,2.22,3.03,2.88,5,.65,1.97.98,4.21.98,6.74v174.53ZM926.89,538.08c-.3,1.26-.71,2.35-1.21,3.25-.51.91-1.31,1.94-2.42,3.1-1.11,1.16-3.25,2.65-6.43,4.47-3.18,1.82-7.06,3.56-11.65,5.22-4.59,1.67-9.84,3.05-15.74,4.16-5.9,1.11-12.29,1.67-19.15,1.67-13.42,0-25.53-2.07-36.33-6.21-10.8-4.14-19.98-10.32-27.55-18.54-7.57-8.22-13.37-18.49-17.41-30.8-4.04-12.31-6.05-26.64-6.05-42.99s2.22-31.43,6.66-44.35c4.44-12.92,10.65-23.76,18.62-32.54,7.97-8.78,17.53-15.44,28.68-19.98,11.15-4.54,23.44-6.81,36.86-6.81,5.45,0,10.7.45,15.74,1.36,5.04.91,9.71,2.1,14,3.56,4.29,1.46,8.15,3.16,11.58,5.07,3.43,1.92,5.83,3.56,7.19,4.92,1.36,1.36,2.29,2.5,2.8,3.41.5.91.91,2.07,1.21,3.48.3,1.41.53,3.08.68,5,.15,1.92.23,4.29.23,7.11,0,3.03-.1,5.6-.3,7.72-.2,2.12-.56,3.84-1.06,5.15-.51,1.31-1.11,2.27-1.82,2.88-.71.61-1.51.91-2.42.91-1.51,0-3.43-.88-5.75-2.65-2.32-1.76-5.32-3.73-9.01-5.9-3.68-2.17-8.07-4.14-13.17-5.9-5.1-1.76-11.18-2.65-18.24-2.65-7.77,0-14.71,1.59-20.81,4.77-6.11,3.18-11.3,7.72-15.59,13.62-4.29,5.9-7.54,13.04-9.76,21.42-2.22,8.38-3.33,17.81-3.33,28.31,0,11.5,1.18,21.47,3.56,29.9,2.37,8.43,5.75,15.36,10.14,20.81,4.39,5.45,9.69,9.51,15.89,12.19,6.21,2.67,13.19,4.01,20.96,4.01,7.06,0,13.17-.83,18.32-2.5,5.15-1.67,9.56-3.51,13.24-5.53,3.68-2.02,6.71-3.83,9.08-5.45,2.37-1.61,4.21-2.42,5.53-2.42,1.01,0,1.82.2,2.42.61.61.4,1.11,1.21,1.51,2.42.4,1.21.71,2.9.91,5.07.2,2.17.3,5.07.3,8.7,0,2.52-.08,4.67-.23,6.43-.15,1.77-.38,3.28-.68,4.54Z"/>
</svg>