<?xml version="1.0" encoding="UTF-8"?>
<svg id="Capa_2" data-name="Capa 2" xmlns="http://www.w3.org/2000/svg" viewBox="0 0 663.14 990.51">
  <defs>
    <style>
      .cls-1 {
        fill: blue;
        stroke: #0000c0;
        stroke-miterlimit: 10;
        stroke-width: 10px;
      }
    </style>
  </defs>
  <path class="cls-1" d="M99.91,8.66c9.99,10.52,17.87,17.9,24.63,26.2,5.71,6.99-2.68,9.82-5.82,13.68C41.87,143.07,22.2,246.78,67.39,361.59c12.37,31.41,29.61,59.37,52.59,83.74,6.47,6.86,7.85,11.53-.21,17.48-3.19,2.35-6.15,5.3-8.46,8.52-7.54,10.52-13.47,7.88-21.19-.58-42.16-46.12-68.22-100.54-78.97-161.45C-7.66,202.68,17.91,107.18,88.26,24.31c3.67-4.32,6.8-9.11,11.65-15.66Z"/>
  <path class="cls-1" d="M658.14,245.29c-2.47,85.27-27.65,160.72-84.55,224.07-4.93,5.49-10.5,17.26-19.35,4.42-6.22-9.02-26.89-12.57-9.35-31.31,76.93-82.19,95.99-215.27,47.88-317.71-13.5-28.75-28.76-55.97-51.19-78.58-5.94-5.98-5.03-9.59.37-15.41,19.51-21.05,19.58-21.54,38.2.37,52.64,61.96,75.49,134.79,78,214.16Z"/>
  <path class="cls-1" d="M150.99,59.73c10.11,10.65,17.72,18.17,24.74,26.22,5.48,6.28-1.95,8.83-4.6,12.48-28.9,39.81-51.6,81.81-54.5,132.72-2.59,45.57,7.34,87.49,30.17,126.6,5.74,9.82,12.27,19.18,18.02,28.99,3.64,6.21,14.66,10.62,11.35,17.43-4.27,8.8-13.03,15.79-20.85,22.36-6.1,5.12-9-2.49-11.97-5.75-34.11-37.44-53.94-82.31-62.22-131.54-13.4-79.71,9.18-150.52,58.34-213.57,3.52-4.51,6.71-9.27,11.52-15.96Z"/>
  <path class="cls-1" d="M585.3,247.24c-1.19,64.73-22.6,121.96-63.94,171.64-4.55,5.46-10.43,15.74-17.96,3.74-5.54-8.84-26.15-10.98-10.91-30.08,69.9-87.59,72.58-194.45,8.95-279.01-3.38-4.49-5.27-10.48-9.38-13.98-8.43-7.2-6.83-12.01.44-19.22,19.05-18.87,19.5-19.83,35.32,1.43,36.43,48.94,58.04,103.38,57.47,165.49Z"/>
  <path class="cls-1" d="M151.84,246.44c.6-43.47,14.62-83.53,44.14-118.21,7.18-8.44,11.89-8.86,18.46-.39,3.14,4.05,6.99,7.6,10.83,11.03,5.02,4.49,6.32,7.84.89,13.9-46.68,52.1-48.33,133.73-.06,186.82,8.59,9.45-.11,12.86-4.66,17.58-17.74,18.4-17.74,18.23-32.84-1.87-23.85-31.73-35.62-67.55-36.76-108.86Z"/>
  <path class="cls-1" d="M510.4,251.58c.53,40.18-15.24,78.5-43.05,112.57-6.32,7.74-11.06,10.87-18.17,1.3-3.38-4.55-7.77-8.47-12.15-12.12-5.78-4.82-4.59-8.14-.12-13.76,47.58-59.86,47.79-125.56.58-185.49-4.91-6.23-6.01-10.11.43-15.35,4.42-3.6,8.61-7.69,12.1-12.18,7.37-9.48,12.11-3.86,17.26,2.27,28.79,34.24,43.78,73.49,43.13,122.77Z"/>
  <path class="cls-1" d="M562.27,966.3c-15.77-65.08-30.81-130.34-46.16-195.52-30.7-130.36-61.76-260.64-91.77-391.17-3.68-16.03-11.26-13.35-21.9-10.53-10.42,2.77-21.56,2.62-16.44,19.79,6.69,22.42,10.64,45.65,16.34,68.38,2.12,8.44,1.01,13.43-7.8,17.25-20.97,9.11-41.35,26.61-62.2,26.97-20.07.35-40.43-16.57-60.67-25.9-1.04-.48-2.06-1.03-3.15-1.37-8.67-2.71-10.69-7.4-8.19-16.77,6.78-25.41,12.14-51.19,18.65-79.38-5.54-10.97-18.97-6.87-28.4-10.82-11.37-4.77-10.29,5.55-11.65,11.32-24.58,104.14-48.88,208.35-73.4,312.5-21.37,90.8-42.49,181.67-64.8,272.24-4.78,19.42,8.92,16.73,18.54,20.24,10.82,3.94,17.48,2.78,20.16-10.92,1.88-9.63.14-21.26,13.43-27.35,51.49-23.58,102.5-48.21,153.41-73.02,7.86-3.83,13.66-2.26,20.59,1.07,51.57,24.74,103.77,48.26,154.54,74.54,13.75,7.12,34.06,11.52,39.67,23.85,9.13,20.07,19.96,10.93,31.96,9.36,9.78-1.28,11.57-5.08,9.22-14.78ZM445.19,637.16c5.52,25.53,11.59,50.94,18.34,80.26-34.99-17.4-68.52-30.05-98.55-52.2,23.8-11.32,47.02-22.18,70.05-33.45,6.63-3.24,8.69-1.41,10.16,5.39ZM382.18,522.87c34.8-18.34,35.09-18.17,39.91,23.73-15.06-5.89-29.3-12.21-43-20.93,1.56-1.43,2.21-2.33,3.09-2.8ZM285.28,526.4c-15.95,7.58-29.4,13.97-42.72,20.3-1.22-2.19-1.78-2.71-1.74-3.18,3.7-38.12,6.97-39.58,44.45-17.12ZM238.88,591.26c20.62-9.9,42.51-17.77,61.64-30,22.19-14.18,41.26-12.22,62.81.4,19.53,11.43,40.67,20.11,63.42,31.12-35.77,17.08-68.78,32.73-101.65,48.65-5.23,2.53-9.57,2.02-14.58-.41-27.75-13.45-55.62-26.65-83.37-39.9,1.63-6.99,7.3-7.73,11.73-9.86ZM214.76,647.66c1.44-6.6,4.98-7.52,11.03-4.43,14.72,7.52,29.75,14.45,45.02,21.79-20.96,16.55-42.85,27.01-67.67,37.31,4.11-19.38,7.77-37.04,11.62-54.67ZM155.05,901.55c7.49-31.27,14.5-58.88,20.55-86.69,2.33-10.72,6.3-11,15.13-6.56,24.99,12.57,50.41,24.29,79.3,38.08-38.94,18.68-75.41,36.18-114.99,55.17ZM442.25,885.57c-80.62-38.35-161.24-76.71-241.75-115.29-4.52-2.17-11.76-2.08-11.31-10.57.42-7.94,6.02-10.29,11.78-13.02,36.2-17.16,72.37-34.36,108.53-51.6,4.68-2.23,8.79-4.26,14.45-1.52,43.17,20.87,86.51,41.38,133.58,63.81-29.43,13.96-55.07,26.53-81.09,38.25-9.59,4.32-13.01,8.28-7.58,19.04,11.41,22.63,10.73,22.79,33.81,11.68,25.68-12.37,51.51-24.43,78.16-37.05,10.14,42.44,19.95,83.5,30.8,128.91-25.62-12.04-47.54-22.25-69.38-32.63Z"/>
  <path class="cls-1" d="M331.63,161.48c-46.99-.24-84.48,37.86-84.2,85.57.27,46.8,37.22,83.87,83.87,84.14,45.95.27,84.46-37.96,84.47-83.85,0-47.86-37-85.63-84.14-85.87ZM376.61,247.75c-.82,25.68-21.57,45.6-46.66,44.8-24.7-.79-45.1-22.62-44.43-47.56.67-24.64,23.02-45.88,47.23-44.86,25.24,1.06,44.67,22.16,43.86,47.63Z"/>
</svg>